<svg width="337" height="209" viewBox="0 0 337 209" fill="none" xmlns="http://www.w3.org/2000/svg">
<g clip-path="url(#clip0)">
<circle cx="102.5" cy="61.5" r="41.5" stroke="#0066FF" stroke-width="10"/>
<circle cx="102.5" cy="144.5" r="41.5" stroke="#0066FF" stroke-width="10"/>
<path d="M188.224 168.248C189.376 168.248 189.952 169.944 189.952 173.336C189.952 178.264 188.608 182.488 185.92 186.008C183.232 189.528 179.808 191.288 175.648 191.288C170.464 191.288 166.592 189.752 164.032 186.68C161.472 183.608 160.192 179.256 160.192 173.624V137.528C160.192 129.272 161.056 123.224 162.784 119.384C164.512 115.544 167.552 113.624 171.904 113.624C178.24 113.624 181.408 117.912 181.408 126.488C181.408 132.952 180.128 138.136 177.568 142.04C175.072 145.944 172.192 148.856 168.928 150.776V176.504C168.928 180.152 169.632 182.904 171.04 184.76C172.448 186.616 174.368 187.544 176.8 187.544C179.232 187.544 181.504 186.072 183.616 183.128C185.728 180.184 186.784 175.416 186.784 168.824C186.912 168.44 187.392 168.248 188.224 168.248ZM177.28 126.584C177.28 120.44 175.744 117.368 172.672 117.368C171.904 117.368 171.296 117.624 170.848 118.136C170.464 118.648 170.112 119.928 169.792 121.976C169.216 125.112 168.928 133.368 168.928 146.744C174.496 142.712 177.28 135.992 177.28 126.584ZM187.485 138.2C186.396 137.112 185.852 135.768 185.852 134.168C185.852 132.568 186.396 131.224 187.485 130.136C188.573 128.984 189.917 128.408 191.517 128.408C193.117 128.408 194.461 128.984 195.549 130.136C196.701 131.224 197.277 132.568 197.277 134.168C197.277 135.768 196.701 137.112 195.549 138.2C194.461 139.288 193.117 139.832 191.517 139.832C189.917 139.832 188.573 139.288 187.485 138.2ZM187.101 153.464C187.101 151.544 187.581 150.104 188.541 149.144C189.501 148.12 190.717 147.608 192.189 147.608C193.661 147.608 194.845 148.056 195.741 148.952V176.504C195.741 180.152 196.445 182.904 197.853 184.76C199.261 186.616 201.181 187.544 203.613 187.544C206.045 187.544 208.317 186.072 210.429 183.128C212.541 180.184 213.597 175.416 213.597 168.824C213.725 168.44 214.205 168.248 215.036 168.248C216.189 168.248 216.765 169.944 216.765 173.336C216.765 178.264 215.421 182.488 212.733 186.008C210.045 189.528 206.621 191.288 202.461 191.288C197.277 191.288 193.405 189.752 190.845 186.68C188.349 183.608 187.101 179.256 187.101 173.624V153.464ZM265.749 168.248C266.901 168.248 267.477 169.944 267.477 173.336C267.477 178.776 266.293 183.128 263.925 186.392C261.621 189.656 258.229 191.288 253.749 191.288C249.269 191.288 245.813 189.752 243.381 186.68C241.013 183.608 239.829 179.256 239.829 173.624V162.392C239.829 154.776 237.909 150.968 234.069 150.968C230.677 150.968 227.893 152.696 225.717 156.152C223.541 159.608 222.453 165.4 222.453 173.528V189.944C221.813 190.84 220.693 191.288 219.093 191.288C217.493 191.288 216.213 190.808 215.253 189.848C214.293 188.824 213.812 187.352 213.812 185.432V148.952C214.453 148.056 215.669 147.608 217.461 147.608C220.789 147.608 222.453 150.008 222.453 154.808C225.141 150.008 229.397 147.608 235.221 147.608C239.381 147.608 242.677 148.92 245.109 151.544C247.605 154.168 248.853 157.944 248.853 162.872V176.504C248.853 180.152 249.429 182.904 250.581 184.76C251.733 186.616 253.429 187.544 255.669 187.544C257.973 187.544 259.989 186.136 261.717 183.32C263.445 180.44 264.309 175.608 264.309 168.824C264.373 168.44 264.853 168.248 265.749 168.248ZM315.795 168.248C316.947 168.248 317.523 169.944 317.523 173.336C317.523 178.648 316.307 182.968 313.875 186.296C311.443 189.624 308.083 191.288 303.795 191.288C299.507 191.288 295.859 189.88 292.851 187.064C289.843 184.184 287.955 180.728 287.187 176.696C282.899 178.488 278.259 179.512 273.267 179.768V189.944C272.627 190.84 271.507 191.288 269.907 191.288C268.307 191.288 267.027 190.808 266.067 189.848C265.107 188.824 264.627 187.352 264.627 185.432V137.336C264.627 129.016 265.427 123 267.027 119.288C268.627 115.512 271.699 113.624 276.243 113.624C278.675 113.624 280.563 114.648 281.907 116.696C283.251 118.744 283.923 121.656 283.923 125.432C283.923 132.28 280.371 139.256 273.267 146.36V155.576C276.147 150.264 280.755 147.608 287.091 147.608C291.123 147.608 294.355 148.664 296.787 150.776C299.283 152.888 300.531 155.768 300.531 159.416C300.531 164.344 298.419 168.664 294.195 172.376C294.515 176.28 295.699 179.8 297.747 182.936C299.795 186.008 302.387 187.544 305.523 187.544C307.955 187.544 310.035 186.04 311.763 183.032C313.491 179.96 314.355 175.224 314.355 168.824C314.419 168.44 314.899 168.248 315.795 168.248ZM292.083 159.512C292.083 156.824 291.507 154.744 290.355 153.272C289.203 151.736 287.731 150.968 285.939 150.968C282.419 150.968 279.411 152.856 276.915 156.632C274.483 160.408 273.267 166.872 273.267 176.024C278.771 175.448 283.283 173.56 286.803 170.36C290.323 167.096 292.083 163.48 292.083 159.512ZM273.267 141.752C277.619 136.12 279.795 130.648 279.795 125.336C279.795 120.024 278.643 117.368 276.339 117.368C275.059 117.368 274.227 118.84 273.843 121.784C273.459 124.728 273.267 131.384 273.267 141.752Z" fill="#313131"/>
<path d="M185.92 186.008L187.51 187.222L187.51 187.222L185.92 186.008ZM164.032 186.68L165.568 185.4L165.568 185.4L164.032 186.68ZM162.784 119.384L164.608 120.205L162.784 119.384ZM177.568 142.04L175.896 140.943L175.889 140.953L175.883 140.963L177.568 142.04ZM168.928 150.776L167.914 149.052L166.928 149.632V150.776H168.928ZM171.04 184.76L169.447 185.969L169.447 185.969L171.04 184.76ZM183.616 183.128L181.991 181.962L181.991 181.962L183.616 183.128ZM186.784 168.824L184.887 168.192L184.784 168.499V168.824H186.784ZM170.848 118.136L169.343 116.819L169.293 116.876L169.248 116.936L170.848 118.136ZM169.792 121.976L171.759 122.337L171.764 122.311L171.768 122.285L169.792 121.976ZM168.928 146.744H166.928V150.662L170.101 148.364L168.928 146.744ZM188.224 170.248C187.959 170.248 187.716 170.128 187.579 169.993C187.49 169.906 187.538 169.905 187.626 170.163C187.806 170.694 187.952 171.7 187.952 173.336H191.952C191.952 171.58 191.81 170.042 191.414 168.877C191.03 167.747 190.107 166.248 188.224 166.248V170.248ZM187.952 173.336C187.952 177.877 186.722 181.662 184.33 184.794L187.51 187.222C190.494 183.314 191.952 178.651 191.952 173.336H187.952ZM184.33 184.794C181.992 187.856 179.139 189.288 175.648 189.288V193.288C180.477 193.288 184.472 191.2 187.51 187.222L184.33 184.794ZM175.648 189.288C170.868 189.288 167.642 187.888 165.568 185.4L162.496 187.96C165.542 191.616 170.06 193.288 175.648 193.288V189.288ZM165.568 185.4C163.41 182.809 162.192 178.977 162.192 173.624H158.192C158.192 179.535 159.534 184.407 162.496 187.96L165.568 185.4ZM162.192 173.624V137.528H158.192V173.624H162.192ZM162.192 137.528C162.192 129.335 163.061 123.642 164.608 120.205L160.96 118.563C159.051 122.806 158.192 129.209 158.192 137.528H162.192ZM164.608 120.205C165.339 118.58 166.294 117.471 167.428 116.755C168.567 116.036 170.026 115.624 171.904 115.624V111.624C169.43 111.624 167.193 112.172 165.292 113.373C163.386 114.577 161.957 116.348 160.96 118.563L164.608 120.205ZM171.904 115.624C174.573 115.624 176.29 116.495 177.423 118.028C178.64 119.676 179.408 122.388 179.408 126.488H183.408C183.408 122.012 182.592 118.292 180.641 115.652C178.606 112.897 175.571 111.624 171.904 111.624V115.624ZM179.408 126.488C179.408 132.707 178.174 137.468 175.896 140.943L179.24 143.137C182.082 138.804 183.408 133.197 183.408 126.488H179.408ZM175.883 140.963C173.519 144.66 170.852 147.324 167.914 149.052L169.942 152.5C173.532 150.388 176.625 147.228 179.253 143.117L175.883 140.963ZM166.928 150.776V176.504H170.928V150.776H166.928ZM166.928 176.504C166.928 180.357 167.663 183.617 169.447 185.969L172.633 183.551C171.601 182.191 170.928 179.947 170.928 176.504H166.928ZM169.447 185.969C171.252 188.348 173.774 189.544 176.8 189.544V185.544C174.962 185.544 173.644 184.884 172.633 183.551L169.447 185.969ZM176.8 189.544C180.148 189.544 182.946 187.493 185.241 184.294L181.991 181.962C180.062 184.651 178.316 185.544 176.8 185.544V189.544ZM185.241 184.294C187.727 180.829 188.784 175.536 188.784 168.824H184.784C184.784 175.296 183.729 179.539 181.991 181.962L185.241 184.294ZM188.681 169.456C188.606 169.683 188.476 169.878 188.321 170.024C188.177 170.161 188.044 170.224 187.983 170.249C187.923 170.273 187.906 170.27 187.956 170.263C188.003 170.256 188.09 170.248 188.224 170.248V166.248C187.69 166.248 187.074 166.305 186.497 166.535C185.874 166.784 185.186 167.294 184.887 168.192L188.681 169.456ZM179.28 126.584C179.28 123.41 178.894 120.731 177.917 118.778C177.414 117.772 176.725 116.898 175.797 116.28C174.857 115.653 173.79 115.368 172.672 115.368V119.368C173.09 119.368 173.367 119.467 173.579 119.608C173.803 119.758 174.074 120.036 174.339 120.566C174.898 121.685 175.28 123.614 175.28 126.584H179.28ZM172.672 115.368C171.41 115.368 170.222 115.814 169.343 116.819L172.353 119.453C172.384 119.418 172.401 119.41 172.416 119.403C172.437 119.394 172.511 119.368 172.672 119.368V115.368ZM169.248 116.936C168.817 117.511 168.554 118.271 168.368 118.95C168.164 119.691 167.982 120.605 167.816 121.667L171.768 122.285C171.922 121.299 172.076 120.549 172.224 120.01C172.39 119.409 172.495 119.273 172.448 119.336L169.248 116.936ZM167.825 121.615C167.208 124.972 166.928 133.443 166.928 146.744H170.928C170.928 133.293 171.224 125.252 171.759 122.337L167.825 121.615ZM170.101 148.364C176.366 143.827 179.28 136.378 179.28 126.584H175.28C175.28 135.606 172.626 141.597 167.755 145.124L170.101 148.364ZM187.485 138.2L186.07 139.614L186.07 139.614L187.485 138.2ZM187.485 130.136L188.899 131.55L188.919 131.53L188.939 131.509L187.485 130.136ZM195.549 130.136L194.094 131.509L194.134 131.551L194.175 131.59L195.549 130.136ZM195.549 138.2L194.175 136.746L194.154 136.766L194.134 136.786L195.549 138.2ZM188.541 149.144L189.955 150.558L189.978 150.535L190 150.512L188.541 149.144ZM195.741 148.952H197.741V148.124L197.155 147.538L195.741 148.952ZM197.853 184.76L196.259 185.969L196.259 185.969L197.853 184.76ZM210.429 183.128L208.803 181.962L208.803 181.962L210.429 183.128ZM213.597 168.824L211.699 168.192L211.597 168.499V168.824H213.597ZM212.733 186.008L214.322 187.222L214.322 187.222L212.733 186.008ZM190.845 186.68L189.292 187.941L189.3 187.951L189.308 187.96L190.845 186.68ZM188.899 136.786C188.202 136.089 187.852 135.261 187.852 134.168H183.852C183.852 136.275 184.591 138.135 186.07 139.614L188.899 136.786ZM187.852 134.168C187.852 133.075 188.202 132.247 188.899 131.55L186.07 128.722C184.591 130.201 183.852 132.061 183.852 134.168H187.852ZM188.939 131.509C189.645 130.762 190.461 130.408 191.517 130.408V126.408C189.372 126.408 187.5 127.206 186.03 128.763L188.939 131.509ZM191.517 130.408C192.572 130.408 193.388 130.762 194.094 131.509L197.003 128.763C195.533 127.206 193.661 126.408 191.517 126.408V130.408ZM194.175 131.59C194.923 132.296 195.277 133.112 195.277 134.168H199.277C199.277 132.024 198.478 130.152 196.922 128.682L194.175 131.59ZM195.277 134.168C195.277 135.224 194.923 136.04 194.175 136.746L196.922 139.654C198.478 138.184 199.277 136.312 199.277 134.168H195.277ZM194.134 136.786C193.438 137.482 192.61 137.832 191.517 137.832V141.832C193.623 141.832 195.483 141.094 196.963 139.614L194.134 136.786ZM191.517 137.832C190.423 137.832 189.595 137.482 188.899 136.786L186.07 139.614C187.55 141.094 189.41 141.832 191.517 141.832V137.832ZM189.101 153.464C189.101 151.852 189.502 151.011 189.955 150.558L187.126 147.73C185.659 149.197 185.101 151.236 185.101 153.464H189.101ZM190 150.512C190.561 149.913 191.239 149.608 192.189 149.608V145.608C190.194 145.608 188.44 146.327 187.081 147.776L190 150.512ZM192.189 149.608C193.223 149.608 193.866 149.906 194.326 150.366L197.155 147.538C195.823 146.206 194.098 145.608 192.189 145.608V149.608ZM193.741 148.952V176.504H197.741V148.952H193.741ZM193.741 176.504C193.741 180.357 194.475 183.617 196.259 185.969L199.446 183.551C198.414 182.191 197.741 179.947 197.741 176.504H193.741ZM196.259 185.969C198.064 188.348 200.587 189.544 203.613 189.544V185.544C201.774 185.544 200.457 184.884 199.446 183.551L196.259 185.969ZM203.613 189.544C206.961 189.544 209.759 187.493 212.054 184.294L208.803 181.962C206.874 184.651 205.128 185.544 203.613 185.544V189.544ZM212.054 184.294C214.539 180.829 215.597 175.536 215.597 168.824H211.597C211.597 175.296 210.542 179.539 208.803 181.962L212.054 184.294ZM215.494 169.456C215.418 169.683 215.288 169.878 215.134 170.024C214.989 170.161 214.857 170.224 214.795 170.249C214.735 170.273 214.718 170.27 214.768 170.263C214.816 170.256 214.902 170.248 215.036 170.248V166.248C214.502 166.248 213.886 166.305 213.31 166.535C212.687 166.784 211.998 167.294 211.699 168.192L215.494 169.456ZM215.036 170.248C214.772 170.248 214.528 170.128 214.392 169.993C214.303 169.906 214.351 169.905 214.439 170.163C214.619 170.694 214.765 171.7 214.765 173.336H218.765C218.765 171.58 218.622 170.042 218.226 168.877C217.842 167.747 216.919 166.248 215.036 166.248V170.248ZM214.765 173.336C214.765 177.877 213.535 181.662 211.143 184.794L214.322 187.222C217.306 183.314 218.765 178.651 218.765 173.336H214.765ZM211.143 184.794C208.805 187.856 205.952 189.288 202.461 189.288V193.288C207.289 193.288 211.284 191.2 214.322 187.222L211.143 184.794ZM202.461 189.288C197.681 189.288 194.455 187.888 192.381 185.4L189.308 187.96C192.354 191.616 196.872 193.288 202.461 193.288V189.288ZM192.397 185.419C190.291 182.827 189.101 178.987 189.101 173.624H185.101C185.101 179.525 186.406 184.389 189.292 187.941L192.397 185.419ZM189.101 173.624V153.464H185.101V173.624H189.101ZM263.925 186.392L262.306 185.218L262.298 185.228L262.291 185.239L263.925 186.392ZM243.381 186.68L241.796 187.901L241.804 187.911L241.812 187.921L243.381 186.68ZM225.717 156.152L227.409 157.218L227.409 157.218L225.717 156.152ZM222.453 189.944L224.08 191.106L224.453 190.585V189.944H222.453ZM215.253 189.848L213.793 191.216L213.815 191.239L213.838 191.262L215.253 189.848ZM213.812 148.952L212.185 147.79L211.812 148.311V148.952H213.812ZM222.453 154.808H220.453V162.473L224.198 155.785L222.453 154.808ZM245.109 151.544L243.642 152.904L243.65 152.913L243.659 152.922L245.109 151.544ZM250.581 184.76L252.28 183.705L252.28 183.705L250.581 184.76ZM261.717 183.32L263.421 184.366L263.426 184.358L263.431 184.349L261.717 183.32ZM264.309 168.824L262.336 168.495L262.309 168.658V168.824H264.309ZM265.749 170.248C265.484 170.248 265.24 170.128 265.104 169.993C265.015 169.906 265.063 169.905 265.151 170.163C265.331 170.694 265.477 171.7 265.477 173.336H269.477C269.477 171.58 269.334 170.042 268.938 168.877C268.554 167.747 267.631 166.248 265.749 166.248V170.248ZM265.477 173.336C265.477 178.499 264.353 182.396 262.306 185.218L265.543 187.566C268.232 183.86 269.477 179.053 269.477 173.336H265.477ZM262.291 185.239C260.411 187.901 257.67 189.288 253.749 189.288V193.288C258.787 193.288 262.83 191.411 265.558 187.545L262.291 185.239ZM253.749 189.288C249.781 189.288 246.944 187.959 244.949 185.439L241.812 187.921C244.681 191.545 248.756 193.288 253.749 193.288V189.288ZM244.965 185.459C242.964 182.864 241.829 179.007 241.829 173.624H237.829C237.829 179.505 239.061 184.352 241.796 187.901L244.965 185.459ZM241.829 173.624V162.392H237.829V173.624H241.829ZM241.829 162.392C241.829 158.481 241.346 155.248 240.174 152.924C239.574 151.733 238.763 150.722 237.691 150.014C236.608 149.297 235.375 148.968 234.069 148.968V152.968C234.682 152.968 235.129 153.115 235.486 153.35C235.854 153.594 236.243 154.011 236.603 154.724C237.351 156.208 237.829 158.687 237.829 162.392H241.829ZM234.069 148.968C229.841 148.968 226.48 151.186 224.024 155.086L227.409 157.218C229.305 154.206 231.512 152.968 234.069 152.968V148.968ZM224.024 155.086C221.53 159.048 220.453 165.331 220.453 173.528H224.453C224.453 165.469 225.551 160.168 227.409 157.218L224.024 155.086ZM220.453 173.528V189.944H224.453V173.528H220.453ZM220.825 188.782C220.71 188.942 220.357 189.288 219.093 189.288V193.288C221.028 193.288 222.915 192.738 224.08 191.106L220.825 188.782ZM219.093 189.288C217.921 189.288 217.185 188.952 216.667 188.434L213.838 191.262C215.24 192.664 217.064 193.288 219.093 193.288V189.288ZM216.712 188.48C216.21 187.945 215.812 187.033 215.812 185.432H211.812C211.812 187.671 212.375 189.703 213.793 191.216L216.712 188.48ZM215.812 185.432V148.952H211.812V185.432H215.812ZM215.44 150.114C215.517 150.006 215.905 149.608 217.461 149.608V145.608C215.432 145.608 213.388 146.106 212.185 147.79L215.44 150.114ZM217.461 149.608C218.575 149.608 219.159 149.968 219.561 150.548C220.055 151.26 220.453 152.577 220.453 154.808H224.453C224.453 152.239 224.018 149.956 222.848 148.268C221.586 146.448 219.674 145.608 217.461 145.608V149.608ZM224.198 155.785C226.507 151.661 230.068 149.608 235.221 149.608V145.608C228.725 145.608 223.774 148.355 220.707 153.831L224.198 155.785ZM235.221 149.608C238.923 149.608 241.651 150.755 243.642 152.904L246.575 150.184C243.702 147.085 239.838 145.608 235.221 145.608V149.608ZM243.659 152.922C245.69 155.057 246.853 158.269 246.853 162.872H250.853C250.853 157.619 249.519 153.279 246.558 150.166L243.659 152.922ZM246.853 162.872V176.504H250.853V162.872H246.853ZM246.853 176.504C246.853 180.302 247.441 183.495 248.881 185.815L252.28 183.705C251.416 182.313 250.853 180.002 250.853 176.504H246.853ZM248.881 185.815C250.409 188.276 252.758 189.544 255.669 189.544V185.544C254.099 185.544 253.056 184.956 252.28 183.705L248.881 185.815ZM255.669 189.544C258.944 189.544 261.502 187.493 263.421 184.366L260.012 182.274C258.475 184.779 257.001 185.544 255.669 185.544V189.544ZM263.431 184.349C265.456 180.974 266.309 175.669 266.309 168.824H262.309C262.309 175.547 261.433 179.906 260.002 182.291L263.431 184.349ZM266.281 169.153C266.231 169.456 266.088 169.734 265.889 169.945C265.706 170.138 265.53 170.221 265.459 170.249C265.388 170.277 265.368 170.274 265.431 170.265C265.49 170.257 265.592 170.248 265.749 170.248V166.248C265.205 166.248 264.563 166.299 263.974 166.535C263.325 166.794 262.52 167.392 262.336 168.495L266.281 169.153ZM313.875 186.296L312.26 185.116L312.26 185.116L313.875 186.296ZM292.851 187.064L291.468 188.509L291.476 188.516L291.484 188.524L292.851 187.064ZM287.187 176.696L289.152 176.322L288.691 173.9L286.416 174.851L287.187 176.696ZM273.267 179.768L273.165 177.771L271.267 177.868V179.768H273.267ZM273.267 189.944L274.895 191.106L275.267 190.585V189.944H273.267ZM266.067 189.848L264.608 191.216L264.63 191.239L264.653 191.262L266.067 189.848ZM267.027 119.288L268.864 120.08L268.869 120.068L267.027 119.288ZM273.267 146.36L271.853 144.946L271.267 145.532V146.36H273.267ZM273.267 155.576H271.267L275.025 156.529L273.267 155.576ZM296.787 150.776L295.476 152.286L295.486 152.294L295.495 152.303L296.787 150.776ZM294.195 172.376L292.875 170.874L292.12 171.537L292.202 172.539L294.195 172.376ZM297.747 182.936L296.073 184.03L296.078 184.038L296.083 184.045L297.747 182.936ZM311.763 183.032L313.497 184.028L313.502 184.02L313.506 184.013L311.763 183.032ZM314.355 168.824L312.382 168.495L312.355 168.658V168.824H314.355ZM290.355 153.272L288.755 154.472L288.768 154.488L288.78 154.505L290.355 153.272ZM276.915 156.632L275.247 155.529L275.24 155.539L275.234 155.549L276.915 156.632ZM273.267 176.024H271.267V178.244L273.475 178.013L273.267 176.024ZM286.803 170.36L288.149 171.84L288.156 171.833L288.163 171.827L286.803 170.36ZM273.267 141.752H271.267V147.611L274.85 142.975L273.267 141.752ZM273.843 121.784L271.86 121.525L271.86 121.525L273.843 121.784ZM315.795 170.248C315.53 170.248 315.287 170.128 315.15 169.993C315.062 169.906 315.11 169.905 315.197 170.163C315.378 170.694 315.523 171.7 315.523 173.336H319.523C319.523 171.58 319.381 170.042 318.985 168.877C318.601 167.747 317.678 166.248 315.795 166.248V170.248ZM315.523 173.336C315.523 178.346 314.378 182.218 312.26 185.116L315.49 187.476C318.236 183.718 319.523 178.95 319.523 173.336H315.523ZM312.26 185.116C310.223 187.905 307.475 189.288 303.795 189.288V193.288C308.691 193.288 312.664 191.343 315.49 187.476L312.26 185.116ZM303.795 189.288C299.992 189.288 296.839 188.058 294.218 185.604L291.484 188.524C294.879 191.702 299.022 193.288 303.795 193.288V189.288ZM294.234 185.619C291.522 183.023 289.841 179.939 289.152 176.322L285.223 177.07C286.07 181.517 288.164 185.345 291.468 188.509L294.234 185.619ZM286.416 174.851C282.356 176.547 277.944 177.526 273.165 177.771L273.37 181.765C278.574 181.498 283.442 180.429 287.958 178.541L286.416 174.851ZM271.267 179.768V189.944H275.267V179.768H271.267ZM271.64 188.782C271.525 188.942 271.171 189.288 269.907 189.288V193.288C271.843 193.288 273.73 192.738 274.895 191.106L271.64 188.782ZM269.907 189.288C268.736 189.288 268 188.952 267.481 188.434L264.653 191.262C266.055 192.664 267.879 193.288 269.907 193.288V189.288ZM267.526 188.48C267.025 187.945 266.627 187.033 266.627 185.432H262.627C262.627 187.671 263.19 189.703 264.608 191.216L267.526 188.48ZM266.627 185.432V137.336H262.627V185.432H266.627ZM266.627 137.336C266.627 129.061 267.435 123.394 268.864 120.08L265.191 118.496C263.419 122.606 262.627 128.971 262.627 137.336H266.627ZM268.869 120.068C269.53 118.509 270.444 117.441 271.578 116.744C272.727 116.038 274.246 115.624 276.243 115.624V111.624C273.697 111.624 271.407 112.154 269.484 113.336C267.546 114.527 266.125 116.291 265.186 118.508L268.869 120.068ZM276.243 115.624C277.996 115.624 279.258 116.304 280.235 117.793L283.579 115.599C281.869 112.992 279.355 111.624 276.243 111.624V115.624ZM280.235 117.793C281.279 119.383 281.923 121.85 281.923 125.432H285.923C285.923 121.462 285.224 118.105 283.579 115.599L280.235 117.793ZM281.923 125.432C281.923 131.545 278.757 138.042 271.853 144.946L274.681 147.774C281.986 140.47 285.923 133.015 285.923 125.432H281.923ZM271.267 146.36V155.576H275.267V146.36H271.267ZM275.025 156.529C276.314 154.153 277.94 152.452 279.882 151.333C281.829 150.211 284.207 149.608 287.091 149.608V145.608C283.64 145.608 280.546 146.333 277.885 147.867C275.218 149.404 273.101 151.687 271.509 154.623L275.025 156.529ZM287.091 149.608C290.767 149.608 293.492 150.564 295.476 152.286L298.099 149.266C295.218 146.764 291.48 145.608 287.091 145.608V149.608ZM295.495 152.303C297.487 153.988 298.531 156.28 298.531 159.416H302.531C302.531 155.256 301.08 151.788 298.079 149.249L295.495 152.303ZM298.531 159.416C298.531 163.684 296.735 167.482 292.875 170.874L295.515 173.878C300.104 169.846 302.531 165.004 302.531 159.416H298.531ZM292.202 172.539C292.548 176.759 293.834 180.602 296.073 184.03L299.422 181.842C297.564 178.998 296.483 175.801 296.189 172.213L292.202 172.539ZM296.083 184.045C298.426 187.56 301.592 189.544 305.523 189.544V185.544C303.182 185.544 301.164 184.456 299.411 181.827L296.083 184.045ZM305.523 189.544C308.956 189.544 311.582 187.363 313.497 184.028L310.029 182.036C308.489 184.717 306.955 185.544 305.523 185.544V189.544ZM313.506 184.013C315.49 180.486 316.355 175.329 316.355 168.824H312.355C312.355 175.119 311.492 179.434 310.02 182.051L313.506 184.013ZM316.328 169.153C316.278 169.456 316.135 169.734 315.935 169.945C315.753 170.138 315.577 170.221 315.506 170.249C315.435 170.277 315.415 170.274 315.478 170.265C315.536 170.257 315.639 170.248 315.795 170.248V166.248C315.252 166.248 314.609 166.299 314.02 166.535C313.372 166.794 312.566 167.392 312.382 168.495L316.328 169.153ZM294.083 159.512C294.083 156.567 293.455 153.988 291.93 152.039L288.78 154.505C289.559 155.5 290.083 157.081 290.083 159.512H294.083ZM291.955 152.072C290.457 150.074 288.411 148.968 285.939 148.968V152.968C287.051 152.968 287.95 153.398 288.755 154.472L291.955 152.072ZM285.939 148.968C281.557 148.968 277.994 151.373 275.247 155.529L278.584 157.735C280.828 154.339 283.281 152.968 285.939 152.968V148.968ZM275.234 155.549C272.469 159.842 271.267 166.813 271.267 176.024H275.267C275.267 166.931 276.498 160.974 278.597 157.715L275.234 155.549ZM273.475 178.013C279.331 177.4 284.264 175.371 288.149 171.84L285.458 168.88C282.303 171.749 278.211 173.496 273.059 174.035L273.475 178.013ZM288.163 171.827C291.999 168.27 294.083 164.151 294.083 159.512H290.083C290.083 162.809 288.648 165.922 285.443 168.893L288.163 171.827ZM274.85 142.975C279.381 137.111 281.795 131.22 281.795 125.336H277.795C277.795 130.076 275.858 135.129 271.685 140.529L274.85 142.975ZM281.795 125.336C281.795 122.597 281.507 120.273 280.766 118.564C280.386 117.687 279.845 116.876 279.07 116.28C278.268 115.664 277.329 115.368 276.339 115.368V119.368C276.501 119.368 276.571 119.404 276.633 119.452C276.721 119.52 276.901 119.705 277.096 120.156C277.507 121.103 277.795 122.763 277.795 125.336H281.795ZM276.339 115.368C274.747 115.368 273.654 116.355 273.014 117.488C272.41 118.557 272.064 119.962 271.86 121.525L275.826 122.043C276.006 120.662 276.269 119.859 276.496 119.456C276.601 119.271 276.653 119.252 276.607 119.285C276.537 119.333 276.431 119.368 276.339 119.368V115.368ZM271.86 121.525C271.456 124.624 271.267 131.42 271.267 141.752H275.267C275.267 131.348 275.463 124.832 275.826 122.043L271.86 121.525Z" fill="white"/>
<path d="M193 61L160 80.0526L160 41.9474L193 61Z" fill="#0066FF"/>
<path d="M12 144L45 124.947L45 163.053L12 144Z" fill="#0066FF"/>
<line x1="60.4118" y1="62.9961" x2="60.4812" y2="143.996" stroke="#0066FF" stroke-width="9"/>
<path d="M61.4752 85.7177L92.6856 102.649L62.4177 121.212L61.4752 85.7177Z" fill="#0066FF"/>
</g>
<defs>
<clipPath id="clip0">
<rect width="337" height="209" fill="white"/>
</clipPath>
</defs>
</svg>
