<svg width="337" height="209" viewBox="0 0 337 209" fill="none" xmlns="http://www.w3.org/2000/svg">
<g clip-path="url(#clip0)">
<rect width="337" height="209" fill="white"/>
<circle cx="102.5" cy="61.5" r="41.5" stroke="#0066FF" stroke-width="10"/>
<circle cx="102.5" cy="144.5" r="41.5" stroke="#0066FF" stroke-width="10"/>
<path d="M188.224 168.248C189.376 168.248 189.952 169.944 189.952 173.336C189.952 178.264 188.608 182.488 185.92 186.008C183.232 189.528 179.808 191.288 175.648 191.288C170.464 191.288 166.592 189.752 164.032 186.68C161.472 183.608 160.192 179.256 160.192 173.624V137.528C160.192 129.272 161.056 123.224 162.784 119.384C164.512 115.544 167.552 113.624 171.904 113.624C178.24 113.624 181.408 117.912 181.408 126.488C181.408 132.952 180.128 138.136 177.568 142.04C175.072 145.944 172.192 148.856 168.928 150.776V176.504C168.928 180.152 169.632 182.904 171.04 184.76C172.448 186.616 174.368 187.544 176.8 187.544C179.232 187.544 181.504 186.072 183.616 183.128C185.728 180.184 186.784 175.416 186.784 168.824C186.912 168.44 187.392 168.248 188.224 168.248ZM177.28 126.584C177.28 120.44 175.744 117.368 172.672 117.368C171.904 117.368 171.296 117.624 170.848 118.136C170.464 118.648 170.112 119.928 169.792 121.976C169.216 125.112 168.928 133.368 168.928 146.744C174.496 142.712 177.28 135.992 177.28 126.584ZM187.485 138.2C186.396 137.112 185.852 135.768 185.852 134.168C185.852 132.568 186.396 131.224 187.485 130.136C188.573 128.984 189.917 128.408 191.517 128.408C193.117 128.408 194.461 128.984 195.549 130.136C196.701 131.224 197.277 132.568 197.277 134.168C197.277 135.768 196.701 137.112 195.549 138.2C194.461 139.288 193.117 139.832 191.517 139.832C189.917 139.832 188.573 139.288 187.485 138.2ZM187.101 153.464C187.101 151.544 187.581 150.104 188.541 149.144C189.501 148.12 190.717 147.608 192.189 147.608C193.661 147.608 194.845 148.056 195.741 148.952V176.504C195.741 180.152 196.445 182.904 197.853 184.76C199.261 186.616 201.181 187.544 203.613 187.544C206.045 187.544 208.317 186.072 210.429 183.128C212.541 180.184 213.597 175.416 213.597 168.824C213.725 168.44 214.205 168.248 215.036 168.248C216.189 168.248 216.765 169.944 216.765 173.336C216.765 178.264 215.421 182.488 212.733 186.008C210.045 189.528 206.621 191.288 202.461 191.288C197.277 191.288 193.405 189.752 190.845 186.68C188.349 183.608 187.101 179.256 187.101 173.624V153.464ZM265.749 168.248C266.901 168.248 267.477 169.944 267.477 173.336C267.477 178.776 266.293 183.128 263.925 186.392C261.621 189.656 258.229 191.288 253.749 191.288C249.269 191.288 245.813 189.752 243.381 186.68C241.013 183.608 239.829 179.256 239.829 173.624V162.392C239.829 154.776 237.909 150.968 234.069 150.968C230.677 150.968 227.893 152.696 225.717 156.152C223.541 159.608 222.453 165.4 222.453 173.528V189.944C221.813 190.84 220.693 191.288 219.093 191.288C217.493 191.288 216.213 190.808 215.253 189.848C214.293 188.824 213.812 187.352 213.812 185.432V148.952C214.453 148.056 215.669 147.608 217.461 147.608C220.789 147.608 222.453 150.008 222.453 154.808C225.141 150.008 229.397 147.608 235.221 147.608C239.381 147.608 242.677 148.92 245.109 151.544C247.605 154.168 248.853 157.944 248.853 162.872V176.504C248.853 180.152 249.429 182.904 250.581 184.76C251.733 186.616 253.429 187.544 255.669 187.544C257.973 187.544 259.989 186.136 261.717 183.32C263.445 180.44 264.309 175.608 264.309 168.824C264.373 168.44 264.853 168.248 265.749 168.248ZM315.795 168.248C316.947 168.248 317.523 169.944 317.523 173.336C317.523 178.648 316.307 182.968 313.875 186.296C311.443 189.624 308.083 191.288 303.795 191.288C299.507 191.288 295.859 189.88 292.851 187.064C289.843 184.184 287.955 180.728 287.187 176.696C282.899 178.488 278.259 179.512 273.267 179.768V189.944C272.627 190.84 271.507 191.288 269.907 191.288C268.307 191.288 267.027 190.808 266.067 189.848C265.107 188.824 264.627 187.352 264.627 185.432V137.336C264.627 129.016 265.427 123 267.027 119.288C268.627 115.512 271.699 113.624 276.243 113.624C278.675 113.624 280.563 114.648 281.907 116.696C283.251 118.744 283.923 121.656 283.923 125.432C283.923 132.28 280.371 139.256 273.267 146.36V155.576C276.147 150.264 280.755 147.608 287.091 147.608C291.123 147.608 294.355 148.664 296.787 150.776C299.283 152.888 300.531 155.768 300.531 159.416C300.531 164.344 298.419 168.664 294.195 172.376C294.515 176.28 295.699 179.8 297.747 182.936C299.795 186.008 302.387 187.544 305.523 187.544C307.955 187.544 310.035 186.04 311.763 183.032C313.491 179.96 314.355 175.224 314.355 168.824C314.419 168.44 314.899 168.248 315.795 168.248ZM292.083 159.512C292.083 156.824 291.507 154.744 290.355 153.272C289.203 151.736 287.731 150.968 285.939 150.968C282.419 150.968 279.411 152.856 276.915 156.632C274.483 160.408 273.267 166.872 273.267 176.024C278.771 175.448 283.283 173.56 286.803 170.36C290.323 167.096 292.083 163.48 292.083 159.512ZM273.267 141.752C277.619 136.12 279.795 130.648 279.795 125.336C279.795 120.024 278.643 117.368 276.339 117.368C275.059 117.368 274.227 118.84 273.843 121.784C273.459 124.728 273.267 131.384 273.267 141.752Z" fill="#313131"/>
<path d="M193 61L160 80.0526L160 41.9474L193 61Z" fill="#0066FF"/>
<path d="M12 144L45 124.947L45 163.053L12 144Z" fill="#0066FF"/>
<line x1="60.4118" y1="62.9961" x2="60.4812" y2="143.996" stroke="#0066FF" stroke-width="9"/>
<path d="M61.4752 85.7177L92.6856 102.649L62.4177 121.212L61.4752 85.7177Z" fill="#0066FF"/>
</g>
<defs>
<clipPath id="clip0">
<rect width="337" height="209" fill="white"/>
</clipPath>
</defs>
</svg>
