{
    "asset" : {
        "generator" : "Khronos glTF Blender I/O v1.4.40",
        "version" : "2.0"
    },
    "scene" : 0,
    "scenes" : [
        {
            "name" : "Scene",
            "nodes" : [
                0
            ]
        }
    ],
    "nodes" : [
        {
            "mesh" : 0,
            "name" : "Plane.002"
        }
    ],
    "materials" : [
        {
            "doubleSided" : true,
            "name" : "Material.019",
            "pbrMetallicRoughness" : {
                "baseColorFactor" : [
                    0.800000011920929,
                    0.800000011920929,
                    0.800000011920929,
                    1
                ],
                "metallicFactor" : 0,
                "roughnessFactor" : 0.5
            }
        }
    ],
    "meshes" : [
        {
            "name" : "Plane.003",
            "primitives" : [
                {
                    "attributes" : {
                        "POSITION" : 0,
                        "NORMAL" : 1,
                        "TEXCOORD_0" : 2,
                        "TEXCOORD_1" : 3
                    },
                    "indices" : 4,
                    "material" : 0
                }
            ]
        }
    ],
    "accessors" : [
        {
            "bufferView" : 0,
            "componentType" : 5126,
            "count" : 33792,
            "max" : [
                0.06103461608290672,
                0.020199941471219063,
                0.060467950999736786
            ],
            "min" : [
                -0.060051217675209045,
                -0.011317123658955097,
                -0.060445915907621384
            ],
            "type" : "VEC3"
        },
        {
            "bufferView" : 1,
            "componentType" : 5126,
            "count" : 33792,
            "type" : "VEC3"
        },
        {
            "bufferView" : 2,
            "componentType" : 5126,
            "count" : 33792,
            "type" : "VEC2"
        },
        {
            "bufferView" : 3,
            "componentType" : 5126,
            "count" : 33792,
            "type" : "VEC2"
        },
        {
            "bufferView" : 4,
            "componentType" : 5123,
            "count" : 50688,
            "type" : "SCALAR"
        }
    ],
    "bufferViews" : [
        {
            "buffer" : 0,
            "byteLength" : 405504,
            "byteOffset" : 0
        },
        {
            "buffer" : 0,
            "byteLength" : 405504,
            "byteOffset" : 405504
        },
        {
            "buffer" : 0,
            "byteLength" : 270336,
            "byteOffset" : 811008
        },
        {
            "buffer" : 0,
            "byteLength" : 270336,
            "byteOffset" : 1081344
        },
        {
            "buffer" : 0,
            "byteLength" : 101376,
            "byteOffset" : 1351680
        }
    ],
    "buffers" : [
        {
            "byteLength" : 1453056,
            "uri" : "data:application/octet-stream;base64,"
        }
    ]
}
