{
    "asset" : {
        "generator" : "Khronos glTF Blender I/O v1.4.40",
        "version" : "2.0"
    },
    "scene" : 0,
    "scenes" : [
        {
            "name" : "Scene",
            "nodes" : [
                0
            ]
        }
    ],
    "nodes" : [
        {
            "mesh" : 0,
            "name" : "Plane"
        }
    ],
    "materials" : [
        {
            "doubleSided" : true,
            "name" : "Material.001",
            "pbrMetallicRoughness" : {
                "baseColorFactor" : [
                    0.800000011920929,
                    0.800000011920929,
                    0.800000011920929,
                    1
                ],
                "metallicFactor" : 0,
                "roughnessFactor" : 0.5
            }
        }
    ],
    "meshes" : [
        {
            "name" : "Plane",
            "primitives" : [
                {
                    "attributes" : {
                        "POSITION" : 0,
                        "NORMAL" : 1,
                        "TEXCOORD_0" : 2,
                        "TEXCOORD_1" : 3
                    },
                    "indices" : 4,
                    "material" : 0
                }
            ]
        }
    ],
    "accessors" : [
        {
            "bufferView" : 0,
            "componentType" : 5126,
            "count" : 16384,
            "max" : [
                21.27048110961914,
                6.738558292388916,
                21.23508071899414
            ],
            "min" : [
                -21.183656692504883,
                -3.5535106658935547,
                -21.2605037689209
            ],
            "type" : "VEC3"
        },
        {
            "bufferView" : 1,
            "componentType" : 5126,
            "count" : 16384,
            "type" : "VEC3"
        },
        {
            "bufferView" : 2,
            "componentType" : 5126,
            "count" : 16384,
            "type" : "VEC2"
        },
        {
            "bufferView" : 3,
            "componentType" : 5126,
            "count" : 16384,
            "type" : "VEC2"
        },
        {
            "bufferView" : 4,
            "componentType" : 5123,
            "count" : 24576,
            "type" : "SCALAR"
        }
    ],
    "bufferViews" : [
        {
            "buffer" : 0,
            "byteLength" : 196608,
            "byteOffset" : 0
        },
        {
            "buffer" : 0,
            "byteLength" : 196608,
            "byteOffset" : 196608
        },
        {
            "buffer" : 0,
            "byteLength" : 131072,
            "byteOffset" : 393216
        },
        {
            "buffer" : 0,
            "byteLength" : 131072,
            "byteOffset" : 524288
        },
        {
            "buffer" : 0,
            "byteLength" : 49152,
            "byteOffset" : 655360
        }
    ],
    "buffers" : [
        {
            "byteLength" : 704512,
            "uri" : "data:application/octet-stream;base64,"
        }
    ]
}
