{
    "asset" : {
        "generator" : "Khronos glTF Blender I/O v1.4.40",
        "version" : "2.0"
    },
    "scene" : 0,
    "scenes" : [
        {
            "name" : "Scene",
            "nodes" : [
                0
            ]
        }
    ],
    "nodes" : [
        {
            "mesh" : 0,
            "name" : "Circle"
        }
    ],
    "materials" : [
        {
            "doubleSided" : true,
            "name" : "Material",
            "pbrMetallicRoughness" : {
                "baseColorFactor" : [
                    0.17335551977157593,
                    0.17335551977157593,
                    0.17335551977157593,
                    1
                ],
                "metallicFactor" : 0
            }
        }
    ],
    "meshes" : [
        {
            "name" : "Circle",
            "primitives" : [
                {
                    "attributes" : {
                        "POSITION" : 0,
                        "NORMAL" : 1,
                        "TEXCOORD_0" : 2,
                        "TEXCOORD_1" : 3
                    },
                    "indices" : 4,
                    "material" : 0
                }
            ]
        }
    ],
    "accessors" : [
        {
            "bufferView" : 0,
            "componentType" : 5126,
            "count" : 2588,
            "max" : [
                37.85740661621094,
                1.745106816291809,
                37.857364654541016
            ],
            "min" : [
                -37.85735321044922,
                -2.6000771522521973,
                -37.85739517211914
            ],
            "type" : "VEC3"
        },
        {
            "bufferView" : 1,
            "componentType" : 5126,
            "count" : 2588,
            "type" : "VEC3"
        },
        {
            "bufferView" : 2,
            "componentType" : 5126,
            "count" : 2588,
            "type" : "VEC2"
        },
        {
            "bufferView" : 3,
            "componentType" : 5126,
            "count" : 2588,
            "type" : "VEC2"
        },
        {
            "bufferView" : 4,
            "componentType" : 5123,
            "count" : 4224,
            "type" : "SCALAR"
        }
    ],
    "bufferViews" : [
        {
            "buffer" : 0,
            "byteLength" : 31056,
            "byteOffset" : 0
        },
        {
            "buffer" : 0,
            "byteLength" : 31056,
            "byteOffset" : 31056
        },
        {
            "buffer" : 0,
            "byteLength" : 20704,
            "byteOffset" : 62112
        },
        {
            "buffer" : 0,
            "byteLength" : 20704,
            "byteOffset" : 82816
        },
        {
            "buffer" : 0,
            "byteLength" : 8448,
            "byteOffset" : 103520
        }
    ],
    "buffers" : [
        {
            "byteLength" : 111968,
            "uri" : "data:application/octet-stream;base64,"
        }
    ]
}
