{
    "asset" : {
        "generator" : "Khronos glTF Blender I/O v1.4.40",
        "version" : "2.0"
    },
    "scene" : 0,
    "scenes" : [
        {
            "name" : "Scene",
            "nodes" : [
                0
            ]
        }
    ],
    "nodes" : [
        {
            "mesh" : 0,
            "name" : "Circle.001"
        }
    ],
    "materials" : [
        {
            "doubleSided" : true,
            "name" : "Material.004",
            "pbrMetallicRoughness" : {
                "baseColorFactor" : [
                    0.17335551977157593,
                    0.17335551977157593,
                    0.17335551977157593,
                    1
                ],
                "metallicFactor" : 0
            }
        }
    ],
    "meshes" : [
        {
            "name" : "Circle.001",
            "primitives" : [
                {
                    "attributes" : {
                        "POSITION" : 0,
                        "NORMAL" : 1,
                        "TEXCOORD_0" : 2,
                        "TEXCOORD_1" : 3
                    },
                    "indices" : 4,
                    "material" : 0
                }
            ]
        }
    ],
    "accessors" : [
        {
            "bufferView" : 0,
            "componentType" : 5126,
            "count" : 326,
            "max" : [
                36.87002182006836,
                1.1175870895385742e-08,
                36.8699836730957
            ],
            "min" : [
                -36.86997604370117,
                1.1175870895385742e-08,
                -36.87001419067383
            ],
            "type" : "VEC3"
        },
        {
            "bufferView" : 1,
            "componentType" : 5126,
            "count" : 326,
            "type" : "VEC3"
        },
        {
            "bufferView" : 2,
            "componentType" : 5126,
            "count" : 326,
            "type" : "VEC2"
        },
        {
            "bufferView" : 3,
            "componentType" : 5126,
            "count" : 326,
            "type" : "VEC2"
        },
        {
            "bufferView" : 4,
            "componentType" : 5123,
            "count" : 384,
            "type" : "SCALAR"
        }
    ],
    "bufferViews" : [
        {
            "buffer" : 0,
            "byteLength" : 3912,
            "byteOffset" : 0
        },
        {
            "buffer" : 0,
            "byteLength" : 3912,
            "byteOffset" : 3912
        },
        {
            "buffer" : 0,
            "byteLength" : 2608,
            "byteOffset" : 7824
        },
        {
            "buffer" : 0,
            "byteLength" : 2608,
            "byteOffset" : 10432
        },
        {
            "buffer" : 0,
            "byteLength" : 768,
            "byteOffset" : 13040
        }
    ],
    "buffers" : [
        {
            "byteLength" : 13808,
            "uri" : "data:application/octet-stream;base64,"
        }
    ]
}
